<svg xmlns="http://www.w3.org/2000/svg" viewBox="0 0 1473.9 338.51"><defs><style>.cls-1{fill:#f9f7f7;}</style></defs><title>Element 2</title><g id="Ebene_2" data-name="Ebene 2"><g id="Ebene_1-2" data-name="Ebene 1"><path class="cls-1" d="M196.69,334.35c1.35-6.05,31.26-116,43-184.87C251.48,80.24,261.9,18.73,249.8,18.73c-11.77,0-45,26.22-97.81,98.15C99.22,189.48,84.76,223.76,76.7,223.76c-14.46,0-3.7-38.32,0-84.7C80.06,98.05,87.79,47.3,75,47.3c-11.1,0-42,41-57.15,100.83C4.43,202.25,2.75,248,11.15,257.37c5.72,6.73,1,9.08-4,3C-3.64,246.62-2,192.84,10.48,145.78,23.93,97,54.85,40.58,74,40.58c20.84,0,11.09,75,8.74,98.48C80.06,166,70,216.37,77,216.37c.67,0,29.58-53.11,67.9-103.19C183.25,62.42,227.28,9.32,249.46,9.32c20.17,0,14.12,53.44-1,140.16-14.45,84-40.67,161.67-47.39,185.87C200.05,339.05,195.35,340.4,196.69,334.35Z"/><path class="cls-1" d="M406.09,148.47c1.34-1.34,7.39-2.69,3.69,2.69-28.9,43.36-71.59,69.91-88.39,69.91-18.15,0-4-25.54-6.39-27.89-1-1-3-.34-13.78,5.71-9.75,5.38-20.51,10.08-23.87,10.08-4.7,0-8.06-3.36-8.06-5.38,0-6,4.37-15.12,16.8-24.53,10.76-8.4,17.48-10.09,23.19-10.09,7.74,0,12.44,12.1,9.08,12.1-3.36.34-4.37-6.72-7.73-6.72-3.36.34-10.08,2.69-19.83,9.08-8.4,6-15.46,15.8-15.46,18.48,0,.34.33,1,1.34,1,3,0,8.74-2.69,18.49-7.06,12.77-6.38,23.86-11.42,25.21-11.42s4,1,4,3.36c0,4-11.43,26.21-2.35,26.21C341.22,214,376.17,186.79,406.09,148.47Z"/><path class="cls-1" d="M435,212.33c-22.18-15.46-32.6-42.68-28.57-64.2.68-3.36,6.73-2.68,6.05,1-3.36,21.52,9.08,44.71,29.25,57.14A306.48,306.48,0,0,0,497.51,134c2-3.7,6.72,3,4.37,7.06-15.8,28.57-34.28,51.09-53.44,68.56A64.41,64.41,0,0,0,474,215.36c31.93,0,81.68-28.23,113.61-44,1.68-1,8.74-.34,3,3-32.61,19.83-86.05,50.76-115.29,50.76A70.09,70.09,0,0,1,441,216.37a264.8,264.8,0,0,1-38.31,27.56c-4.71,2.69-9.42-1.34-4.71-4A244.31,244.31,0,0,0,435,212.33Z"/><path class="cls-1" d="M781.53,334.35c1.34-6.05,31.26-116,43-184.87,11.77-69.24,22.19-130.75,10.08-130.75-11.76,0-45,26.22-97.81,98.15-52.77,72.6-67.22,106.88-75.29,106.88-14.45,0-3.69-38.32,0-84.7,3.36-41,11.09-91.76-1.68-91.76-11.09,0-42,41-57.14,100.83C589.27,202.25,587.59,248,596,257.37c5.71,6.73,1,9.08-4,3-10.76-13.78-9.08-67.56,3.36-114.62C608.76,97,639.68,40.58,658.84,40.58c20.84,0,11.1,75,8.74,98.48-2.69,26.89-12.77,77.31-5.71,77.31.67,0,29.58-53.11,67.9-103.19C768.08,62.42,812.12,9.32,834.3,9.32c20.17,0,14.12,53.44-1,140.16-14.45,84-40.67,161.67-47.39,185.87C784.89,339.05,780.18,340.4,781.53,334.35Z"/><path class="cls-1" d="M870.93,177.38c10.76-9.08,19.16-10.76,24.87-10.76,7.73,0,7.06,8.4,3.7,7.06-4.37-1.68-12.77-.34-23.53,7.73s-14.79,16.14-14.45,21.85c.33,7.06,10.75,10.08,21.85,8.74,24.87-2.69,79.66-27.9,103.52-40.67,1.68-1,8.74-.67,3.36,3-25.21,16.14-82,39.66-104.87,43-15.8,2.35-29.24-.34-30.92-11.77C853.45,197.88,858.83,187.46,870.93,177.38Z"/><path class="cls-1" d="M1011.09,184.77,1005,203.59c-13.44,41.35-21.51,78-21.17,82.69.33,5,2.68,9.08,8.4,8.74,18.82-1,59.49-11.43,87.39-20.17,21.18-6.72,30.92-11.43,33.95-14.11,3-3,12.1,2,8.74,4.7-3.36,3-22.19,12.1-44.37,18.49-22.18,6.72-57.81,16.47-76,17.14-12.44.67-15.8,0-17.15-1.68-1.68-1.34-7-6.39-7.39-12.44s4.37-36,18.49-84.7c1.34-5,3-10.42,5-16.47-10.42,1.35-17.82,2-18.83,2-4,.33-2-6.39,1.69-7.06,2.68-.67,10.08-1.35,19.49-2.69,11.43-35.29,28.23-81,41.34-114.62-26.89,6.72-47.73,14.12-52.1,16.14-6.38,3-8.06-4-2.35-8.07,4.37-3.36,26.56-11.43,58.15-17.48,6.39-16.13,11.76-28.57,14.12-33.61,8.4-17.48,10.08-18.15,11.43-19.5,1-1.34,7.73-1.68,4,2.36-3.36,4.37-5,8.4-5.38,12.43-.33,3.7-4,7.06-15.12,36.64,7.73-1.34,16.13-2.69,25.2-3.7,49.08-6,85-5.37,93.45-5s3,4.71-1.68,5c-14.79.68-45.72-1-90.08,6.39-10.42,1.68-20.84,4-30.25,6l-.68,2C1041.68,95,1026.22,139.4,1013.78,177c26.22-3,62.18-6.72,77-8.74,22.86-3,23.87-5.71,24.87-3.69.68,2-1.68,8.4-7.39,9.07Z"/><path class="cls-1" d="M1175.45,168.3a6.74,6.74,0,0,1-1.34-4.37c0-2.35,3.69-7.73,7.05-7.73,2,0,3,1.35,2.69,3.7-.33,3-1.68,5.71-3,8.4,6.05,5.38,22.85,7.4,33.27,7.73,14.79.34,27.57-2,36.31-5,2-.33,5.71,2.35,3,3.7-1.34.67-12.44,7.06-33.28,6.72-19.83,0-34.62-4-41.67-9.75l-4,5.72c-2,2.69-15.46,18.48-21.51,18.48-5.38,0-7.06-10.08-6.39-15.79.34-4.71,3-10.09,7.4-10.09,2.69,0,1,2.69-.34,8.41s-1,10.42.67,10.42C1157.3,188.81,1169.06,178.39,1175.45,168.3Z"/><path class="cls-1" d="M1399.3,171.33c1.68-1,8.74-.67,3,3-22.19,14.46-93.44,46.72-115.63,46.72-16.47,0-21.17-9.74-21.17-16.8s1.34-10.42.67-11.09c-1-1-3-.68-13.78,5-9.75,5.71-20.51,10.08-23.87,10.08-4.7,0-8.06-3-8.06-5,0-6.39,4-15.13,16.8-24.54,10.76-8.4,17.48-10.08,23.19-10.08,7.73,0,12.44,12.1,9.08,12.1s-4.37-6.72-8.07-6.72c-3.36,0-10.08,2.69-19.49,9.07-8.74,5.72-15.46,15.46-15.46,18.15,0,.67.33,1,1.34,1,3,0,8.74-2.35,18.15-7.06,12.77-6.05,21.18-10.75,25.21-10.75,1.34,0,4.37.67,4.37,3,0,2.69-3.36,8.74-3.36,16.47,0,5.71,6,10.08,14.79,10.08C1310.57,214,1378.8,182.42,1399.3,171.33Z"/><path class="cls-1" d="M1470.56,208.64c-7.73,3.69-16.47,5.71-20.84,4.7-7.06-1.34-8.74-10.08-8.07-19.49.34-5,0-7.06-1-7.73-1.68-1-5.37.33-11.76,3.69-5.38,2.69-23.87,12.1-26.89,12.1-2,0-8.07-2.35-8.07-5,0-1.68,4.37-13.11,6-23.86.67-2.69,3-2.69,4.71-3,2,0,3,.68,2.69,3.7-.67,6.39-5,18.15-5.72,20.84-.33.67,0,1.34,1,1.34s10.76-4.7,17.48-8.06c9.75-5,16.47-8.74,21.51-8.74s9.08,4,9.08,10.75c-.68,9.42,0,15.8,2.69,17.15,3,1.34,8.06.67,16.13-2C1474.25,202.92,1475.94,206.28,1470.56,208.64Z"/></g></g></svg>